<svg width="120" height="120" viewBox="0 0 120 120" fill="none" xmlns="http://www.w3.org/2000/svg">
<path d="M60 0C26.865 0 0 26.865 0 60C0 93.135 26.865 120 60 120C93.135 120 120 93.135 120 60C120 26.865 93.135 0 60 0ZM76.43 75C70.91 75 67.03 71.75 63.285 67.92L66.395 64.02C69.28 67.33 72.27 70 76.43 70C81.715 70 85.125 66.055 85.125 60C85.125 53.945 81.71 50 76.43 50C64.59 50 58.585 75 43.575 75C35.58 75 30 68.865 30 60C30 51.135 35.58 45 43.575 45C49.1 45 52.98 48.25 56.73 52.085L53.62 55.99C50.73 52.675 47.74 50 43.575 50C38.29 50 34.875 53.945 34.875 60C34.875 66.055 38.295 70 43.575 70C55.395 70 61.385 45 76.43 45C84.425 45 90 51.135 90 60C90 68.865 84.425 75 76.43 75V75Z" fill="white"/>
</svg>
